<?xml version="1.0" encoding="UTF-8" standalone="no"?>
<!DOCTYPE svg PUBLIC "-//W3C//DTD SVG 1.1//EN"
 "http://www.w3.org/Graphics/SVG/1.1/DTD/svg11.dtd">
<!-- Generated by graphviz version 2.43.0 (0)
 -->
<!-- Title: %3 Pages: 1 -->
<svg width="625pt" height="405pt"
 viewBox="0.00 0.00 625.00 405.00" xmlns="http://www.w3.org/2000/svg" xmlns:xlink="http://www.w3.org/1999/xlink">
<g id="graph0" class="graph" transform="scale(1 1) rotate(0) translate(4 401)">
<title>%3</title>
<polygon fill="white" stroke="transparent" points="-4,4 -4,-401 621,-401 621,4 -4,4"/>
<g id="clust1" class="cluster">
<title>cluster_data_model</title>
<polygon fill="none" stroke="black" points="8,-152 8,-389 411,-389 411,-152 8,-152"/>
<text text-anchor="middle" x="209.5" y="-373.8" font-family="Times,serif" font-size="14.00">Core Data Model</text>
</g>
<g id="clust2" class="cluster">
<title>cluster_visualisation</title>
<polygon fill="none" stroke="black" points="419,-8 419,-242 609,-242 609,-8 419,-8"/>
<text text-anchor="middle" x="514" y="-226.8" font-family="Times,serif" font-size="14.00">Visualisation Layer</text>
<text text-anchor="middle" x="514" y="-211.8" font-family="Times,serif" font-size="14.00">(napari compatibility)</text>
</g>
<!-- DataBlock -->
<g id="node1" class="node">
<title>DataBlock</title>
<ellipse fill="none" stroke="black" cx="224" cy="-340" rx="57.69" ry="18"/>
<text text-anchor="middle" x="224" y="-336.3" font-family="Times,serif" font-size="14.00">DataBlock</text>
</g>
<!-- Particles -->
<g id="node2" class="node">
<title>Particles</title>
<ellipse fill="none" stroke="black" cx="67" cy="-268" rx="51.19" ry="18"/>
<text text-anchor="middle" x="67" y="-264.3" font-family="Times,serif" font-size="14.00">Particles</text>
</g>
<!-- DataBlock&#45;&gt;Particles -->
<g id="edge1" class="edge">
<title>DataBlock&#45;&gt;Particles</title>
<path fill="none" stroke="black" d="M192.23,-324.83C167.57,-313.84 133.24,-298.53 106.76,-286.73"/>
<polygon fill="black" stroke="black" points="107.95,-283.43 97.39,-282.55 105.1,-289.82 107.95,-283.43"/>
</g>
<!-- Image -->
<g id="node3" class="node">
<title>Image</title>
<ellipse fill="none" stroke="black" cx="176" cy="-268" rx="39.79" ry="18"/>
<text text-anchor="middle" x="176" y="-264.3" font-family="Times,serif" font-size="14.00">Image</text>
</g>
<!-- DataBlock&#45;&gt;Image -->
<g id="edge2" class="edge">
<title>DataBlock&#45;&gt;Image</title>
<path fill="none" stroke="black" d="M212.38,-322.05C206.52,-313.5 199.3,-302.97 192.84,-293.56"/>
<polygon fill="black" stroke="black" points="195.72,-291.57 187.18,-285.31 189.95,-295.53 195.72,-291.57"/>
</g>
<!-- Model -->
<g id="node4" class="node">
<title>Model</title>
<ellipse fill="none" stroke="black" cx="273" cy="-268" rx="39.79" ry="18"/>
<text text-anchor="middle" x="273" y="-264.3" font-family="Times,serif" font-size="14.00">Model</text>
</g>
<!-- DataBlock&#45;&gt;Model -->
<g id="edge3" class="edge">
<title>DataBlock&#45;&gt;Model</title>
<path fill="none" stroke="black" d="M235.86,-322.05C241.85,-313.5 249.22,-302.97 255.81,-293.56"/>
<polygon fill="black" stroke="black" points="258.72,-295.51 261.59,-285.31 252.98,-291.49 258.72,-295.51"/>
</g>
<!-- Mesh -->
<g id="node5" class="node">
<title>Mesh</title>
<ellipse fill="none" stroke="black" cx="367" cy="-268" rx="36.29" ry="18"/>
<text text-anchor="middle" x="367" y="-264.3" font-family="Times,serif" font-size="14.00">Mesh</text>
</g>
<!-- DataBlock&#45;&gt;Mesh -->
<g id="edge4" class="edge">
<title>DataBlock&#45;&gt;Mesh</title>
<path fill="none" stroke="black" d="M253.63,-324.5C276.6,-313.25 308.46,-297.66 332.56,-285.86"/>
<polygon fill="black" stroke="black" points="334.27,-288.92 341.71,-281.38 331.19,-282.63 334.27,-288.92"/>
</g>
<!-- Crate -->
<g id="node6" class="node">
<title>Crate</title>
<ellipse fill="none" stroke="black" cx="273" cy="-178" rx="36.29" ry="18"/>
<text text-anchor="middle" x="273" y="-174.3" font-family="Times,serif" font-size="14.00">Crate</text>
</g>
<!-- Particles&#45;&gt;Crate -->
<g id="edge5" class="edge">
<title>Particles&#45;&gt;Crate</title>
<path fill="none" stroke="black" d="M98.29,-253.63C135.54,-237.72 197.63,-211.2 236.89,-194.43"/>
<polygon fill="black" stroke="black" points="238.52,-197.53 246.34,-190.39 235.77,-191.1 238.52,-197.53"/>
</g>
<!-- Image&#45;&gt;Crate -->
<g id="edge6" class="edge">
<title>Image&#45;&gt;Crate</title>
<path fill="none" stroke="black" d="M192.9,-251.67C208.34,-237.66 231.34,-216.79 248.74,-201.01"/>
<polygon fill="black" stroke="black" points="251.24,-203.46 256.3,-194.15 246.54,-198.28 251.24,-203.46"/>
</g>
<!-- Model&#45;&gt;Crate -->
<g id="edge8" class="edge">
<title>Model&#45;&gt;Crate</title>
<path fill="none" stroke="black" d="M273,-249.61C273,-237.24 273,-220.37 273,-206.22"/>
<polygon fill="black" stroke="black" points="276.5,-206.05 273,-196.05 269.5,-206.05 276.5,-206.05"/>
</g>
<!-- Mesh&#45;&gt;Crate -->
<g id="edge7" class="edge">
<title>Mesh&#45;&gt;Crate</title>
<path fill="none" stroke="black" d="M350.63,-251.67C335.66,-237.66 313.37,-216.79 296.51,-201.01"/>
<polygon fill="black" stroke="black" points="298.88,-198.43 289.19,-194.15 294.09,-203.54 298.88,-198.43"/>
</g>
<!-- VolumeViewer -->
<g id="node7" class="node">
<title>VolumeViewer</title>
<ellipse fill="none" stroke="black" cx="504" cy="-106" rx="77.19" ry="18"/>
<text text-anchor="middle" x="504" y="-102.3" font-family="Times,serif" font-size="14.00">VolumeViewer</text>
</g>
<!-- Crate&#45;&gt;VolumeViewer -->
<g id="edge9" class="edge">
<title>Crate&#45;&gt;VolumeViewer</title>
<path fill="none" stroke="black" d="M303.2,-167.85C340.11,-156.66 403.3,-137.52 448.94,-123.68"/>
<polygon fill="black" stroke="black" points="450.13,-126.98 458.69,-120.73 448.1,-120.28 450.13,-126.98"/>
</g>
<!-- Peeper -->
<g id="node9" class="node">
<title>Peeper</title>
<ellipse fill="none" stroke="black" cx="531" cy="-34" rx="42.79" ry="18"/>
<text text-anchor="middle" x="531" y="-30.3" font-family="Times,serif" font-size="14.00">Peeper</text>
</g>
<!-- VolumeViewer&#45;&gt;Peeper -->
<g id="edge11" class="edge">
<title>VolumeViewer&#45;&gt;Peeper</title>
<path fill="none" stroke="black" d="M510.54,-88.05C513.57,-80.18 517.26,-70.62 520.67,-61.79"/>
<polygon fill="black" stroke="black" points="524,-62.86 524.34,-52.28 517.47,-60.35 524,-62.86"/>
</g>
<!-- Viewable -->
<g id="node8" class="node">
<title>Viewable</title>
<ellipse fill="none" stroke="black" cx="526" cy="-178" rx="52.79" ry="18"/>
<text text-anchor="middle" x="526" y="-174.3" font-family="Times,serif" font-size="14.00">Viewable</text>
</g>
<!-- Viewable&#45;&gt;VolumeViewer -->
<g id="edge10" class="edge">
<title>Viewable&#45;&gt;VolumeViewer</title>
<path fill="none" stroke="black" d="M520.67,-160.05C518.22,-152.26 515.26,-142.82 512.51,-134.08"/>
<polygon fill="black" stroke="black" points="515.77,-132.77 509.43,-124.28 509.09,-134.86 515.77,-132.77"/>
</g>
<!-- Viewable&#45;&gt;Peeper -->
<g id="edge12" class="edge">
<title>Viewable&#45;&gt;Peeper</title>
<path fill="none" stroke="black" d="M553.1,-162.39C566.89,-153.34 582.33,-140.32 590,-124 596.81,-109.52 596.52,-102.61 590,-88 584.24,-75.07 573.59,-63.98 562.91,-55.34"/>
<polygon fill="black" stroke="black" points="564.9,-52.46 554.81,-49.21 560.68,-58.04 564.9,-52.46"/>
</g>
</g>
</svg>
