<?xml version="1.0" encoding="UTF-8" ?>
<svg width="887pt" height="389pt" viewBox="0.00 0.00 887.04 389.00" xmlns="http://www.w3.org/2000/svg" xmlns:xlink="http://www.w3.org/1999/xlink">
<g id="graph0" class="graph" transform="scale(1 1) rotate(0) translate(4 385)">
<title>%0</title>
<polygon fill="#ffffff" stroke="transparent" points="-4,4 -4,-385 883.0392,-385 883.0392,4 -4,4"/>
<g id="clust1" class="cluster">
<title>cluster_crates</title>
<polygon fill="none" stroke="#b22222" points="287.6254,-8 287.6254,-373 456.4789,-373 456.4789,-8 287.6254,-8"/>
<text text-anchor="middle" x="372.0522" y="-356.4" font-family="Times,serif" font-size="14.00" fill="#000000">Multi-Volume Dataset</text>
</g>
<g id="clust2" class="cluster">
<title>cluster_crate1</title>
<polygon fill="none" stroke="#0000ff" points="295.6254,-209 295.6254,-340 448.4789,-340 448.4789,-209 295.6254,-209"/>
<text text-anchor="middle" x="372.0522" y="-323.4" font-family="Times,serif" font-size="14.00" fill="#000000">DataCrate1</text>
</g>
<g id="clust3" class="cluster">
<title>cluster_crate2</title>
<polygon fill="none" stroke="#0000ff" points="295.6254,-16 295.6254,-201 448.4789,-201 448.4789,-16 295.6254,-16"/>
<text text-anchor="middle" x="372.0522" y="-184.4" font-family="Times,serif" font-size="14.00" fill="#000000">DataCrate2</text>
</g>
<g id="clust4" class="cluster">
<title>cluster_peeper</title>
<polygon fill="none" stroke="#ffd700" points="504.4789,-16 504.4789,-309 678.7651,-309 678.7651,-16 504.4789,-16"/>
<text text-anchor="middle" x="591.622" y="-292.4" font-family="Times,serif" font-size="14.00" fill="#000000">Peeper</text>
</g>
<g id="clust5" class="cluster">
<title>cluster_middle_layer</title>
</g>
<g id="clust6" class="cluster">
<title>cluster_analysis</title>
<polygon fill="none" stroke="#00ffff" points="16,-236 16,-313 239.6254,-313 239.6254,-236 16,-236"/>
<text text-anchor="middle" x="127.8127" y="-296.4" font-family="Times,serif" font-size="14.00" fill="#000000">Analysis</text>
</g>
<g id="clust7" class="cluster">
<title>cluster_models</title>
<polygon fill="none" stroke="#ee82ee" points="49.2315,-97 49.2315,-228 206.3939,-228 206.3939,-97 49.2315,-97"/>
<text text-anchor="middle" x="127.8127" y="-211.4" font-family="Times,serif" font-size="14.00" fill="#000000">Models</text>
</g>
<!-- ParticleBlock1 -->
<g id="node1" class="node">
<title>ParticleBlock1</title>
<ellipse fill="none" stroke="#000000" cx="372.0522" cy="-289" rx="68.3536" ry="18"/>
<text text-anchor="middle" x="372.0522" y="-284.8" font-family="Times,serif" font-size="14.00" fill="#000000">ParticleBlock1</text>
</g>
<!-- ParticleDepictor1 -->
<g id="node6" class="node">
<title>ParticleDepictor1</title>
<ellipse fill="none" stroke="#000000" cx="591.622" cy="-258" rx="79.2864" ry="18"/>
<text text-anchor="middle" x="591.622" y="-253.8" font-family="Times,serif" font-size="14.00" fill="#000000">ParticleDepictor1</text>
</g>
<!-- ParticleBlock1&#45;&gt;ParticleDepictor1 -->
<g id="edge1" class="edge">
<title>ParticleBlock1-&gt;ParticleDepictor1</title>
<path fill="none" stroke="#6495ed" d="M432.6318,-280.4471C457.8445,-276.8874 487.4228,-272.7114 514.185,-268.933"/>
<polygon fill="#6495ed" stroke="#6495ed" points="514.8766,-272.3701 524.2891,-267.5064 513.8979,-265.4389 514.8766,-272.3701"/>
</g>
<!-- PointBlock -->
<g id="node2" class="node">
<title>PointBlock</title>
<ellipse fill="none" stroke="#000000" cx="372.0522" cy="-235" rx="54.4932" ry="18"/>
<text text-anchor="middle" x="372.0522" y="-230.8" font-family="Times,serif" font-size="14.00" fill="#000000">PointBlock</text>
</g>
<!-- PointDepictor -->
<g id="node7" class="node">
<title>PointDepictor</title>
<ellipse fill="none" stroke="#000000" cx="591.622" cy="-204" rx="65.4266" ry="18"/>
<text text-anchor="middle" x="591.622" y="-199.8" font-family="Times,serif" font-size="14.00" fill="#000000">PointDepictor</text>
</g>
<!-- PointBlock&#45;&gt;PointDepictor -->
<g id="edge2" class="edge">
<title>PointBlock-&gt;PointDepictor</title>
<path fill="none" stroke="#6495ed" d="M422.4259,-227.888C452.3732,-223.6599 490.7607,-218.2401 523.3987,-213.6321"/>
<polygon fill="#6495ed" stroke="#6495ed" points="523.915,-217.094 533.3274,-212.2303 522.9363,-210.1628 523.915,-217.094"/>
</g>
<!-- SphereModel -->
<g id="node13" class="node">
<title>SphereModel</title>
<ellipse fill="none" stroke="#000000" cx="127.8127" cy="-177" rx="63.1228" ry="18"/>
<text text-anchor="middle" x="127.8127" y="-172.8" font-family="Times,serif" font-size="14.00" fill="#000000">SphereModel</text>
</g>
<!-- PointBlock&#45;&gt;SphereModel -->
<g id="edge7" class="edge">
<title>PointBlock-&gt;SphereModel</title>
<path fill="none" stroke="#6495ed" d="M327.7067,-224.4692C288.0552,-215.0531 229.6682,-201.1878 186.2231,-190.8708"/>
<polygon fill="#6495ed" stroke="#6495ed" points="186.8967,-187.4335 176.3586,-188.5283 185.2793,-194.2441 186.8967,-187.4335"/>
</g>
<!-- ImageBlock -->
<g id="node3" class="node">
<title>ImageBlock</title>
<ellipse fill="none" stroke="#000000" cx="372.0522" cy="-150" rx="58.4667" ry="18"/>
<text text-anchor="middle" x="372.0522" y="-145.8" font-family="Times,serif" font-size="14.00" fill="#000000">ImageBlock</text>
</g>
<!-- ImageDepictor -->
<g id="node8" class="node">
<title>ImageDepictor</title>
<ellipse fill="none" stroke="#000000" cx="591.622" cy="-150" rx="68.8984" ry="18"/>
<text text-anchor="middle" x="591.622" y="-145.8" font-family="Times,serif" font-size="14.00" fill="#000000">ImageDepictor</text>
</g>
<!-- ImageBlock&#45;&gt;ImageDepictor -->
<g id="edge3" class="edge">
<title>ImageBlock-&gt;ImageDepictor</title>
<path fill="none" stroke="#6495ed" d="M430.3164,-150C455.4387,-150 485.2159,-150 512.3053,-150"/>
<polygon fill="#6495ed" stroke="#6495ed" points="512.5407,-153.5001 522.5407,-150 512.5407,-146.5001 512.5407,-153.5001"/>
</g>
<!-- ParticleBlock2 -->
<g id="node4" class="node">
<title>ParticleBlock2</title>
<ellipse fill="none" stroke="#000000" cx="372.0522" cy="-96" rx="68.3536" ry="18"/>
<text text-anchor="middle" x="372.0522" y="-91.8" font-family="Times,serif" font-size="14.00" fill="#000000">ParticleBlock2</text>
</g>
<!-- ParticleDepictor2 -->
<g id="node9" class="node">
<title>ParticleDepictor2</title>
<ellipse fill="none" stroke="#000000" cx="591.622" cy="-96" rx="79.2864" ry="18"/>
<text text-anchor="middle" x="591.622" y="-91.8" font-family="Times,serif" font-size="14.00" fill="#000000">ParticleDepictor2</text>
</g>
<!-- ParticleBlock2&#45;&gt;ParticleDepictor2 -->
<g id="edge4" class="edge">
<title>ParticleBlock2-&gt;ParticleDepictor2</title>
<path fill="none" stroke="#6495ed" d="M440.6223,-96C460.1945,-96 481.8113,-96 502.4238,-96"/>
<polygon fill="#6495ed" stroke="#6495ed" points="502.4487,-99.5001 512.4486,-96 502.4486,-92.5001 502.4487,-99.5001"/>
</g>
<!-- LineBlock -->
<g id="node5" class="node">
<title>LineBlock</title>
<ellipse fill="none" stroke="#000000" cx="372.0522" cy="-42" rx="51.6054" ry="18"/>
<text text-anchor="middle" x="372.0522" y="-37.8" font-family="Times,serif" font-size="14.00" fill="#000000">LineBlock</text>
</g>
<!-- LineDepictor -->
<g id="node10" class="node">
<title>LineDepictor</title>
<ellipse fill="none" stroke="#000000" cx="591.622" cy="-42" rx="62.5373" ry="18"/>
<text text-anchor="middle" x="591.622" y="-37.8" font-family="Times,serif" font-size="14.00" fill="#000000">LineDepictor</text>
</g>
<!-- LineBlock&#45;&gt;LineDepictor -->
<g id="edge5" class="edge">
<title>LineBlock-&gt;LineDepictor</title>
<path fill="none" stroke="#6495ed" d="M424.0872,-42C452.3433,-42 487.7346,-42 518.6995,-42"/>
<polygon fill="#6495ed" stroke="#6495ed" points="519.0143,-45.5001 529.0143,-42 519.0143,-38.5001 519.0143,-45.5001"/>
</g>
<!-- FilamentModel -->
<g id="node12" class="node">
<title>FilamentModel</title>
<ellipse fill="none" stroke="#000000" cx="127.8127" cy="-123" rx="70.6626" ry="18"/>
<text text-anchor="middle" x="127.8127" y="-118.8" font-family="Times,serif" font-size="14.00" fill="#000000">FilamentModel</text>
</g>
<!-- LineBlock&#45;&gt;FilamentModel -->
<g id="edge6" class="edge">
<title>LineBlock-&gt;FilamentModel</title>
<path fill="none" stroke="#6495ed" d="M333.3417,-54.2337C318.9682,-58.8146 302.5365,-64.0969 287.6254,-69 251.6012,-80.8457 211.1331,-94.5235 179.933,-105.1494"/>
<polygon fill="#6495ed" stroke="#6495ed" points="178.4818,-101.9463 170.1461,-108.4859 180.7406,-108.5718 178.4818,-101.9463"/>
</g>
<!-- napari -->
<g id="node14" class="node">
<title>napari</title>
<ellipse fill="none" stroke="#00ff00" cx="810.9021" cy="-150" rx="68.2744" ry="18"/>
<text text-anchor="middle" x="810.9021" y="-145.8" font-family="Times,serif" font-size="14.00" fill="#000000">Napari Viewer</text>
</g>
<!-- ParticleDepictor1&#45;&gt;napari -->
<g id="edge8" class="edge">
<title>ParticleDepictor1-&gt;napari</title>
<path fill="none" stroke="#ffd700" d="M643.5614,-244.2371C655.345,-240.4777 667.6553,-236.0306 678.7651,-231 714.6614,-214.7457 752.7296,-190.5813 778.738,-172.8759"/>
<polygon fill="#ffd700" stroke="#ffd700" points="780.8206,-175.6914 787.0753,-167.1398 776.853,-169.9244 780.8206,-175.6914"/>
</g>
<!-- PointDepictor&#45;&gt;napari -->
<g id="edge9" class="edge">
<title>PointDepictor-&gt;napari</title>
<path fill="none" stroke="#ffd700" d="M640.2874,-192.0156C672.9017,-183.984 716.0708,-173.3532 750.8248,-164.7947"/>
<polygon fill="#ffd700" stroke="#ffd700" points="751.9796,-168.1149 760.8525,-162.3252 750.3057,-161.318 751.9796,-168.1149"/>
</g>
<!-- ImageDepictor&#45;&gt;napari -->
<g id="edge10" class="edge">
<title>ImageDepictor-&gt;napari</title>
<path fill="none" stroke="#ffd700" d="M660.7026,-150C683.4485,-150 708.9055,-150 732.3063,-150"/>
<polygon fill="#ffd700" stroke="#ffd700" points="732.5445,-153.5001 742.5445,-150 732.5444,-146.5001 732.5445,-153.5001"/>
</g>
<!-- ParticleDepictor2&#45;&gt;napari -->
<g id="edge11" class="edge">
<title>ParticleDepictor2-&gt;napari</title>
<path fill="none" stroke="#ffd700" d="M645.5448,-109.279C677.493,-117.1466 718.0377,-127.1312 750.9833,-135.2444"/>
<polygon fill="#ffd700" stroke="#ffd700" points="750.399,-138.705 760.9459,-137.6977 752.0729,-131.908 750.399,-138.705"/>
</g>
<!-- LineDepictor&#45;&gt;napari -->
<g id="edge12" class="edge">
<title>LineDepictor-&gt;napari</title>
<path fill="none" stroke="#ffd700" d="M638.0971,-54.0557C651.4788,-58.1504 665.9239,-63.1854 678.7651,-69 714.6614,-85.2543 752.7296,-109.4187 778.738,-127.1241"/>
<polygon fill="#ffd700" stroke="#ffd700" points="776.853,-130.0756 787.0753,-132.8602 780.8206,-124.3086 776.853,-130.0756"/>
</g>
<!-- classify_radial_distance -->
<g id="node11" class="node">
<title>classify_radial_distance</title>
<ellipse fill="none" stroke="#000000" cx="127.8127" cy="-262" rx="103.6257" ry="18"/>
<text text-anchor="middle" x="127.8127" y="-257.8" font-family="Times,serif" font-size="14.00" fill="#000000">classify_radial_distance</text>
</g>
<!-- classify_radial_distance&#45;&gt;ParticleBlock1 -->
<g id="edge13" class="edge">
<title>classify_radial_distance-&gt;ParticleBlock1</title>
<path fill="none" stroke="#00ffff" d="M215.6437,-271.7095C242.8087,-274.7125 272.437,-277.9878 298.5287,-280.8722"/>
<polygon fill="#00ffff" stroke="#00ffff" points="298.3941,-284.3785 308.7182,-281.9986 299.1634,-277.4209 298.3941,-284.3785"/>
</g>
<!-- classify_radial_distance&#45;&gt;ParticleBlock2 -->
<g id="edge14" class="edge">
<title>classify_radial_distance-&gt;ParticleBlock2</title>
<path fill="none" stroke="#00ffff" d="M213.2198,-251.6293C225.808,-247.1276 237.818,-240.816 247.6254,-232 286.0027,-197.5022 250.3747,-158.7113 287.6254,-123 292.9714,-117.8749 299.2911,-113.7226 306.0293,-110.3584"/>
<polygon fill="#00ffff" stroke="#00ffff" points="307.6702,-113.4607 315.4253,-106.242 304.8612,-107.049 307.6702,-113.4607"/>
</g>
<!-- FilamentModel&#45;&gt;ParticleBlock2 -->
<g id="edge15" class="edge">
<title>FilamentModel-&gt;ParticleBlock2</title>
<path fill="none" stroke="#ee82ee" d="M192.6232,-115.8354C225.1539,-112.2392 264.7013,-107.8673 298.3809,-104.1442"/>
<polygon fill="#ee82ee" stroke="#ee82ee" points="299.0758,-107.5888 308.6306,-103.0111 298.3065,-100.6311 299.0758,-107.5888"/>
</g>
<!-- SphereModel&#45;&gt;ParticleBlock1 -->
<g id="edge16" class="edge">
<title>SphereModel-&gt;ParticleBlock1</title>
<path fill="none" stroke="#ee82ee" d="M165.0153,-191.654C189.2079,-201.7648 221.0748,-216.1955 247.6254,-232 266.7206,-243.3666 267.8788,-251.807 287.6254,-262 295.6591,-266.1469 304.452,-269.8124 313.2324,-272.9991"/>
<polygon fill="#ee82ee" stroke="#ee82ee" points="312.124,-276.3191 322.7187,-276.2693 314.4053,-269.7013 312.124,-276.3191"/>
</g>
</g>
</svg>